<?xml version="1.0" standalone="no"?>
<!DOCTYPE svg PUBLIC "-//W3C//DTD SVG 20010904//EN"
 "http://www.w3.org/TR/2001/REC-SVG-20010904/DTD/svg10.dtd">
<svg version="1.0" xmlns="http://www.w3.org/2000/svg"
 width="700.000000pt" height="700.000000pt" viewBox="0 0 700.000000 700.000000"
 preserveAspectRatio="xMidYMid meet">
<metadata>
Created by potrace 1.14, written by Peter Selinger 2001-2017
</metadata>
<g transform="translate(0.000000,700.000000) scale(0.100000,-0.100000)"
fill="#000000" stroke="none">
<path d="M3299 6916 c-2 -2 -44 -6 -94 -10 -502 -36 -1063 -222 -1510 -501
-101 -62 -331 -228 -398 -287 -199 -174 -372 -356 -525 -553 -154 -200 -309
-467 -417 -721 -113 -263 -210 -612 -240 -859 -4 -27 -8 -61 -11 -75 -28 -172
-25 -639 5 -856 18 -126 35 -215 66 -354 29 -131 102 -355 166 -512 220 -535
604 -1039 1059 -1388 25 -19 50 -38 55 -43 212 -168 602 -376 910 -484 101
-35 362 -108 422 -118 18 -2 52 -9 75 -14 169 -38 375 -56 633 -56 332 0 559
27 850 102 695 178 1270 536 1765 1101 144 164 318 427 436 657 201 394 321
816 363 1275 8 93 7 556 -2 595 -2 11 -8 52 -12 90 -4 39 -9 79 -11 90 -2 10
-6 37 -9 60 -68 467 -296 1021 -589 1430 -44 61 -152 201 -166 215 -3 3 -20
23 -39 45 -109 130 -346 353 -501 471 -378 288 -815 497 -1275 609 -111 27
-292 59 -400 70 -33 4 -71 9 -85 12 -28 5 -516 14 -521 9z m518 -269 c12 -3
48 -8 80 -12 33 -3 72 -8 89 -11 453 -78 826 -217 1193 -445 99 -62 280 -193
351 -254 59 -52 132 -118 189 -172 l54 -52 2 -69 c3 -73 -7 -158 -26 -229 -11
-40 -13 -42 -38 -35 -14 4 -66 7 -116 7 -137 0 -252 -49 -343 -145 l-36 -39
-38 20 c-99 50 -354 128 -472 144 -27 3 -52 8 -56 10 -12 8 -201 19 -315 19
-106 0 -258 -9 -319 -19 -11 -2 -39 -6 -61 -10 -320 -47 -578 -117 -757 -204
l-77 -38 -43 45 c-43 45 -137 112 -158 112 -11 0 -11 17 5 205 3 33 10 95 16
137 5 43 12 90 13 105 10 79 38 259 41 263 2 3 6 26 10 50 19 138 142 607 159
610 0 0 26 3 56 6 30 4 57 8 59 10 5 5 514 -4 538 -9z m-947 -54 c0 -3 -13
-56 -30 -117 -28 -106 -73 -297 -84 -361 -41 -219 -84 -547 -101 -755 -1 -14
-3 -32 -3 -41 -1 -10 -15 -19 -35 -23 -60 -11 -171 -73 -221 -122 -58 -59 -94
-118 -123 -204 l-22 -64 -78 -2 c-78 -2 -186 -11 -233 -19 -14 -2 -43 -6 -65
-10 -54 -8 -181 -33 -230 -47 -22 -5 -44 -11 -50 -12 -5 -1 -50 -15 -100 -30
-379 -118 -719 -321 -1005 -603 -52 -51 -95 -93 -96 -93 -1 0 3 19 8 43 5 23
11 49 13 57 154 720 603 1409 1205 1852 206 151 365 242 660 375 94 43 364
132 452 149 13 2 46 10 73 18 61 17 65 18 65 9z m3224 -1286 c83 -120 135
-206 209 -346 46 -87 56 -113 41 -107 -10 5 -73 28 -138 52 -65 24 -121 46
-124 49 -3 3 -7 16 -9 28 -7 46 -35 116 -69 173 l-36 59 24 96 c13 54 26 95
30 92 4 -2 36 -45 72 -96z m-1534 -191 c163 -20 361 -73 488 -131 71 -33 72
-34 73 -72 2 -169 77 -321 197 -401 23 -15 24 -19 17 -103 -3 -48 -8 -99 -10
-113 -8 -45 -25 -140 -30 -165 -52 -269 -207 -644 -365 -886 -64 -97 -165
-241 -180 -255 -3 -3 -23 -27 -44 -55 -68 -85 -267 -279 -343 -332 l-73 -51
-63 34 c-126 66 -268 81 -390 38 l-47 -16 -38 33 c-191 171 -470 620 -620 999
-83 209 -167 491 -187 628 -18 131 -19 125 28 150 61 32 130 101 170 170 35
60 67 172 67 236 0 27 6 39 30 56 99 71 433 174 665 205 11 2 40 6 65 10 73
11 91 14 170 21 41 3 76 7 78 9 6 5 287 -3 342 -9z m1111 -7 c53 -16 121 -84
137 -137 30 -98 -3 -197 -84 -253 -42 -28 -58 -33 -114 -35 -36 -1 -79 4 -95
11 -78 34 -135 124 -135 213 0 42 38 129 66 153 60 53 147 71 225 48z m-2861
-73 c107 -43 165 -168 129 -277 -19 -56 -59 -100 -113 -125 -66 -31 -126 -31
-191 0 -59 27 -77 46 -104 106 -67 147 41 313 199 308 30 -1 66 -6 80 -12z
m3300 -370 c88 -32 112 -42 168 -67 65 -29 204 -114 224 -136 31 -36 99 -319
133 -553 28 -196 28 -601 0 -810 -2 -19 -7 -55 -10 -79 -3 -25 -8 -47 -10 -51
-2 -3 -6 -27 -9 -52 -12 -106 -132 -525 -157 -552 -5 -6 -9 -16 -9 -24 0 -55
-282 -584 -346 -649 -7 -7 -22 -28 -34 -48 l-21 -35 -164 2 c-89 0 -189 5
-221 9 -33 4 -81 10 -109 12 -44 4 -121 16 -210 33 -175 32 -436 125 -680 244
-214 104 -207 97 -193 188 11 69 3 175 -17 223 -5 13 16 34 87 87 228 171 450
428 653 757 170 274 311 634 370 940 13 73 35 230 37 266 1 22 4 41 7 43 3 2
28 7 55 10 151 21 281 103 353 224 14 23 28 42 31 42 4 0 36 -11 72 -24z
m-3791 -81 c21 -33 58 -79 82 -103 51 -50 168 -111 227 -119 23 -3 42 -6 43
-7 0 0 2 -19 5 -42 5 -35 53 -275 69 -339 17 -73 103 -326 146 -433 57 -140
172 -377 239 -493 117 -201 279 -426 398 -550 l60 -63 -25 -51 c-35 -68 -43
-97 -49 -185 -6 -78 10 -168 43 -238 18 -38 29 -24 -98 -116 -261 -191 -755
-435 -1119 -556 -282 -93 -612 -164 -825 -176 l-90 -6 -126 124 c-448 439
-749 977 -883 1578 -13 58 -27 127 -31 153 -3 27 -8 59 -11 70 -2 12 -7 49
-10 82 -4 33 -8 63 -10 67 -2 3 -7 89 -10 190 -6 178 -6 185 16 228 116 229
413 527 705 710 212 132 551 262 773 296 20 3 55 9 77 14 22 5 76 12 120 15
44 4 81 8 82 9 1 1 38 2 83 1 l81 0 38 -60z m1733 -2204 c51 -12 112 -62 136
-113 30 -63 25 -159 -11 -215 -74 -117 -245 -136 -342 -39 -86 87 -87 221 -1
310 58 59 129 78 218 57z m293 -601 c54 -37 258 -137 375 -185 63 -26 124 -51
135 -55 114 -48 359 -119 465 -135 25 -4 47 -8 50 -10 3 -2 34 -6 70 -10 36
-4 67 -8 70 -10 8 -5 168 -18 237 -19 35 0 63 -5 63 -10 0 -13 -167 -175 -277
-267 -497 -416 -1082 -660 -1741 -726 -148 -15 -596 -8 -688 11 -12 2 -45 7
-75 11 -82 10 -272 51 -395 86 -259 72 -577 212 -804 354 -103 64 -103 65 -3
78 51 7 119 21 293 62 234 55 633 204 900 336 243 119 536 296 684 412 37 29
63 44 70 38 49 -38 221 -58 324 -39 37 7 147 58 177 82 26 20 34 20 70 -4z"/>
</g>
</svg>
