<svg version="1.2" xmlns="http://www.w3.org/2000/svg" viewBox="0 0 250 250" width="250" height="250">
	<title>Wiki All</title>
	<style>
		.s0 { fill: none;stroke: #d66b3a;stroke-width: 2 } 
		.s1 { fill: #d66b3a } 
	</style>
	<path id="Lines" class="s0" d="m81 82c0.4-2 4.4-7.8 11-12 8.4-5.3 17.9-5.6 20-5m5.7-6.5c0-1.2 0.2-5.1 1.3-11.5 1-5.6 2.5-10 3-11m9.5 61.6c-1.5-0.9-6-5.9-9.5-13.6-3.4-7.4-4.2-13.5-4-15.1m13.4 36.8c-1.1 1.4-5.9 4.9-13.4 8.3-9.3 4.2-18.1 5.2-20 5m58-52c0.5 2.1-0.2 10.8-5 19-4.5 7.7-9.7 11.9-11.7 12.5m-17.3-35.7c1.3-1.6 5.9-3.7 14.5-4.7 8.4-1 14.8 1.9 16.4 3.1m9.6-10.2c0.2 0.5 0.2 2.4-0.4 4.7-0.5 2.2-0.7 2.2-1.1 2.5m1.6 5.5c0.6-0.1 1.6 0.3 4.4 1.3 2.7 1 5.3 2.8 5.6 3.3m-7.5 43.4c-1.3 0.3-9 0.4-15.1-1.7-5.8-2-9.9-4.3-10.7-5.3"/>
	<path id="WIKI ALL" class="s1" aria-label="WIKI ALL"  d="m80.8 154h1.3l3.6-10.9 3.7 10.9h1.3l4.3-12.9h-1.3l-3.7 10.9-3.6-10.9h-1.3l-3.7 10.9-3.6-10.9h-1.3zm20.2 0h1.3v-12.8h-1.3zm8.9 0h1.3v-4.8l1.3-1.4 5.3 6.2h1.7l-6.2-7.2 5.1-5.7h-1.6l-5.6 6.1v-6.1h-1.3zm15.7 0h1.3v-12.8h-1.3zm17.5 0h1.4l2.3-5.1h5.6l2.3 5.1h1.4l-5.8-12.9h-1.4zm8.7-6.3h-4.4l2.2-4.9zm10 6.3h7.3v-1.2h-6v-11.6h-1.3zm13.9 0h7.3v-1.3h-6v-11.6h-1.3z"/>
	<path id="Forma 2" class="s0" d="m117 69c-2.8 0-5-2.2-5-5 0-2.8 2.2-5 5-5 2.8 0 5 2.2 5 5 0 2.8-2.2 5-5 5z"/>
	<path id="Forma 2 copy" class="s0" d="m158 68c-2.8 0-5-2.2-5-5 0-2.8 2.2-5 5-5 2.8 0 5 2.2 5 5 0 2.8-2.2 5-5 5z"/>
	<path id="Forma 2 copy 2" class="s0" d="m135 107c-2.8 0-5-2.2-5-5 0-2.8 2.2-5 5-5 2.8 0 5 2.2 5 5 0 2.8-2.2 5-5 5z"/>
	<path id="Forma 1" class="s0" d="m128 130c-26 0-47-21-47-47 0-26 21-47 47-47 26 0 47 21 47 47 0 26-21 47-47 47z"/>
</svg>